<svg width="33" height="34" viewBox="0 0 33 34" fill="none" xmlns="http://www.w3.org/2000/svg">
<path d="M10.8491 6.2569L16.2736 0.832385L21.6981 6.2569L16.2736 11.6814L10.8491 6.2569Z" fill="#338EE1"/>
<path d="M10.8491 17.1059L16.2736 11.6814L21.6981 17.1059L16.2736 22.5304L10.8491 17.1059Z" fill="#024784"/>
<path d="M5.42456 11.6814L10.8491 6.25692L16.2736 11.6814L10.8491 17.1059L5.42456 11.6814Z" fill="#1968AF"/>
<path d="M0 6.2569L5.42451 0.832385L10.849 6.2569L5.42451 11.6814L0 6.2569Z" fill="#338EE1"/>
<path d="M21.698 17.1059L27.1225 11.6814L32.547 17.1059L27.1225 22.5304L21.698 17.1059Z" fill="#024784"/>
<path d="M16.2734 11.6814L21.6979 6.25692L27.1225 11.6814L21.6979 17.1059L16.2734 11.6814Z" fill="#1968AF"/>
<path d="M16.2734 22.5304L21.6979 17.1059L27.1225 22.5304L21.6979 27.9549L16.2734 22.5304Z" fill="#1968AF"/>
<path d="M5.42456 22.5304L10.8491 17.1059L16.2736 22.5304L10.8491 27.9549L5.42456 22.5304Z" fill="#1968AF"/>
<path d="M0 27.955L5.42451 22.5304L10.849 27.955L5.42451 33.3795L0 27.955Z" fill="#1461A6"/>
<path d="M0 17.1059L5.42451 11.6814L10.849 17.1059L5.42451 22.5304L0 17.1059Z" fill="#338EE1"/>
<path d="M10.8491 27.955L16.2736 22.5304L21.6981 27.955L16.2736 33.3795L10.8491 27.955Z" fill="#338EE1"/>
</svg>
